# xmcd
#
# Track frame offsets: 
#        150
#        15854
#        36141
#        52703
#        67793
#        82537
#        98293
#        115597
#        127410
#        145060
#        158460
#        171694
#
# Disc length: 2487 seconds
#
# Revision: 0
# Processed by: cddbd v1.5.2PL0 Copyright (c) Steve Scherf et al.
# Submitted via: ExactAudioCopy v0.99pb4
#
DISCID=7e09b50c
DTITLE=探戈演唱 - 酒場演歌
DYEAR=1970
DGENRE=Acid Jazz
TTITLE0=晚風
TTITLE1=永恆的回憶
TTITLE2=水悠悠
TTITLE3=能不能留住你
TTITLE4=我把愛情收回來
TTITLE5=讓回憶隨風飄
TTITLE6=往事只能回味
TTITLE7=神秘女郎
TTITLE8=相逢夕陽下
TTITLE9=又是黃昏
TTITLE10=月夜情
TTITLE11=水長流
EXTD=
EXTT0=
EXTT1=
EXTT2=
EXTT3=
EXTT4=
EXTT5=
EXTT6=
EXTT7=
EXTT8=
EXTT9=
EXTT10=
EXTT11=
PLAYORDER=
